PathFileType	4	(X/Y/Z)	/Users/itak/Documents/Research/Walk-IL/dataset/trc/00404_00012.trc
DataRate	CameraRate	NumFrames	NumMarkers	Units	OrigDataRate	OrigDataStartFrame	OrigNumFrames
100.000000	100.000000	4	54	mm	100.000000	353	566
Frame#	Time	RPSI			LPSI			L3			STRN			T10			C7			CLAV			RBAK			LBAK			LSHO			LUPA			LAEL			LAOL			LWTS			LWPS			LFRA			LHPS			RSHO			RUPA			RAEL			RAOL			RWTS			RWPS			RFRA			RIFD			RHPS			RBHD			LFHD			RFHD			LBHD			LHIP			RHIP			RASI			LASI			LKNE			LTHI			LANK			LTIP			LTOE			LMT1			LMT5			LHEE			RKNE			RTHI			RANK			RTIP			RTOE			RMT1			RMT5			RHEE			LIFD			LHTS			RHTS			*53			
		X1	Y1	Z1	X2	Y2	Z2	X3	Y3	Z3	X4	Y4	Z4	X5	Y5	Z5	X6	Y6	Z6	X7	Y7	Z7	X8	Y8	Z8	X9	Y9	Z9	X10	Y10	Z10	X11	Y11	Z11	X12	Y12	Z12	X13	Y13	Z13	X14	Y14	Z14	X15	Y15	Z15	X16	Y16	Z16	X17	Y17	Z17	X18	Y18	Z18	X19	Y19	Z19	X20	Y20	Z20	X21	Y21	Z21	X22	Y22	Z22	X23	Y23	Z23	X24	Y24	Z24	X25	Y25	Z25	X26	Y26	Z26	X27	Y27	Z27	X28	Y28	Z28	X29	Y29	Z29	X30	Y30	Z30	X31	Y31	Z31	X32	Y32	Z32	X33	Y33	Z33	X34	Y34	Z34	X35	Y35	Z35	X36	Y36	Z36	X37	Y37	Z37	X38	Y38	Z38	X39	Y39	Z39	X40	Y40	Z40	X41	Y41	Z41	X42	Y42	Z42	X43	Y43	Z43	X44	Y44	Z44	X45	Y45	Z45	X46	Y46	Z46	X47	Y47	Z47	X48	Y48	Z48	X49	Y49	Z49	X50	Y50	Z50	X51	Y51	Z51	X52	Y52	Z52	X53	Y53	Z53	X54	Y54	Z54	

354	3.53	0.1372330337762833	955.2689819335938	-643.6491088867188	-4.336905479431152	942.5476684570312	-776.6800537109375	-6.587035179138184	1033.859497070312	-701.9352416992188	234.5991668701172	1191.314208984375	-695.9788818359375	-19.27705764770508	1138.926391601562	-701.7373046875	26.74348640441895	1386.567626953125	-699.0145263671875	180.8696594238281	1310.348266601562	-693.1326904296875	-20.45713424682617	1240.765258789062	-635.1294555664062	9.390204429626465	1355.397216796875	-799.4487915039062	94.30182647705078	1368.460083007812	-851.9129638671875	41.67232131958008	1258.594848632812	-912.8802490234375	4.519107341766357	1065.690185546875	-930.0125732421875	-30.04094505310059	1053.9267578125	-853.5313110351562	46.90895080566406	832.6792602539062	-907.91748046875	-21.75447082519531	836.42529296875	-953.6904907226562	-10.14494895935059	961.2527465820312	-941.1315307617188	-31.70195007324219	748.8614501953125	-943.7122802734375	74.61255645751953	1365.203735351562	-542.7186889648438	55.42324829101562	1301.789916992188	-483.3584289550781	81.99782562255859	1045.162231445312	-417.5857849121094	69.48796081542969	1021.775024414062	-510.5761108398438	309.06640625	956.9776611328125	-433.8504638671875	282.8291625976562	923.1671142578125	-373.2759094238281	133.8457641601562	1005.460815429688	-397.7786254882812	431.4501953125	835.4097290039062	-407.5417785644531	348.1611633300781	863.935302734375	-363.5035705566406	76.47727966308594	1573.547973632812	-611.18505859375	234.7948913574219	1565.200439453125	-733.6987915039062	210.2129669189453	1568.943115234375	-613.4134521484375	89.5457763671875	1568.316040039062	-772.402587890625	83.44993591308594	942.795166015625	-887.567138671875	82.09861755371094	933.2406616210938	-527.9951171875	214.2411499023438	944.1448974609375	-579.3643188476562	197.3153533935547	950.5722045898438	-841.6226806640625	322.1653442382812	501.4379272460938	-879.2918701171875	255.3689575195312	621.6878051757812	-888.8199462890625	307.8748474121094	42.63497924804688	-901.9620361328125	314.3544921875	265.502685546875	-907.2880859375	511.9256591796875	88.09201812744141	-848.33984375	441.1536560058594	67.50677490234375	-812.43701171875	431.421142578125	54.11069869995117	-918.81396484375	276.3409118652344	34.80534362792969	-845.7169189453125	88.72064208984375	446.4023132324219	-612.7415161132812	151.9585266113281	701.1978759765625	-554.2785034179688	-33.5386848449707	49.70089340209961	-690.9818725585938	76.27851104736328	322.0133666992188	-650.379638671875	129.7458801269531	34.49942779541016	-789.4688110351562	47.27476119995117	38.94027709960938	-804.4677124023438	49.38808059692383	42.93092346191406	-703.7784423828125	-116.8220291137695	43.41133880615234	-727.7906494140625	-5.076544761657715	659.2501220703125	-901.439453125	27.64847373962402	733.5692749023438	-925.2422485351562	394.1808471679688	898.24951171875	-402.3721313476562	nan	nan	nan	
355	3.54	9.534627914428711	953.5829467773438	-646.3635864257812	6.99273681640625	940.6529541015625	-779.3948364257812	3.616613864898682	1031.913208007812	-704.7599487304688	244.9245758056641	1189.203002929688	-696.0648193359375	-9.451427459716797	1137.088012695312	-704.604736328125	37.26620483398438	1384.614868164062	-700.7294311523438	191.0796356201172	1308.098266601562	-693.575927734375	-11.17596054077148	1238.8662109375	-637.5294799804688	20.71703338623047	1353.575927734375	-801.3026733398438	106.0796051025391	1366.51806640625	-853.0880126953125	53.05052947998047	1256.982055664062	-914.241455078125	14.46913814544678	1064.304565429688	-930.926513671875	-20.24879455566406	1052.966186523438	-854.5380859375	54.52483749389648	830.8546142578125	-907.9390258789062	-13.89726448059082	835.125244140625	-954.01025390625	-1.144629120826721	959.9102783203125	-941.8363037109375	-24.74435806274414	747.6915893554688	-943.8353271484375	83.60053253173828	1362.748901367188	-544.0023193359375	63.9923210144043	1299.266235351562	-484.8325805664062	91.44686126708984	1042.890502929688	-418.0272827148438	79.22944641113281	1019.044799804688	-510.78125	319.9273376464844	958.8357543945312	-434.5125732421875	294.5721435546875	924.8744506835938	-373.6598510742188	144.0588684082031	1004.199340820312	-398.0255432128906	445.1505126953125	840.3804931640625	-407.4609375	361.2438049316406	867.2992553710938	-363.5401000976562	85.94936370849609	1571.638916015625	-612.9419555664062	245.537353515625	1563.0048828125	-733.7522583007812	219.7261657714844	1567.015258789062	-613.7333984375	100.7468414306641	1566.0546875	-773.9744262695312	96.18022155761719	940.3696899414062	-889.0154418945312	89.54161834716797	931.7392578125	-529.4700317382812	222.6815948486328	942.4080200195312	-578.9994506835938	209.5256652832031	948.5020141601562	-841.5674438476562	334.0235595703125	498.9095458984375	-878.5877075195312	266.1442260742188	619.0936889648438	-889.6106567382812	344.4583740234375	39.9257926940918	-899.66162109375	338.9633178710938	263.0917053222656	-905.5834350585938	543.7987060546875	94.59758758544922	-836.7606811523438	471.7390441894531	70.78010559082031	-804.1673583984375	468.1408081054688	56.56180572509766	-910.6328735351562	310.9346313476562	30.75235557556152	-845.1970825195312	93.49089813232422	445.1864013671875	-613.2393188476562	158.2046508789062	699.575927734375	-554.305419921875	-33.54508972167969	49.95628356933594	-691.3988037109375	79.77471923828125	320.8048400878906	-650.9118041992188	129.8642425537109	34.27588653564453	-789.6040649414062	47.29322814941406	38.72037887573242	-804.7696533203125	49.110107421875	42.84097290039062	-704.1669311523438	-116.9081726074219	44.10107040405273	-728.47265625	1.485176563262939	658.2591552734375	-901.8054809570312	34.42137145996094	731.8668823242188	-925.1058959960938	406.4320678710938	902.4149169921875	-402.674560546875	nan	nan	nan	
356	3.55	19.01454925537109	951.7587890625	-648.924072265625	18.33177757263184	938.59716796875	-781.9130249023438	13.90645503997803	1029.931762695312	-707.44580078125	255.2869720458984	1187.017944335938	-696.0486450195312	0.6438581347465515	1135.1640625	-707.3734741210938	47.82860565185547	1382.598266601562	-702.4133911132812	201.3642120361328	1305.802001953125	-693.9637451171875	-1.853208661079407	1236.897583007812	-639.9051513671875	32.14091873168945	1351.679443359375	-803.1282958984375	117.9811477661133	1364.538818359375	-854.19677734375	64.65446472167969	1255.302734375	-915.6217651367188	24.85049438476562	1062.8310546875	-932.0122680664062	-10.13485145568848	1051.863037109375	-855.7577514648438	62.5922966003418	828.9463500976562	-908.142333984375	-5.523913860321045	833.7697143554688	-954.6151733398438	8.35637378692627	958.4982299804688	-942.7617797851562	-17.29294204711914	746.4807739257812	-944.21142578125	92.62598419189453	1360.243896484375	-545.260986328125	72.60622406005859	1296.670532226562	-486.2886352539062	100.8727340698242	1040.534790039062	-418.5974731445312	88.94595336914062	1016.276245117188	-511.13232421875	330.4793090820312	960.0552368164062	-435.2118835449219	305.8976440429688	925.993896484375	-374.0813598632812	154.1412811279297	1002.7373046875	-398.3814697265625	458.1614685058594	844.4471435546875	-407.4581298828125	373.7311706542969	869.8983764648438	-363.6435852050781	95.39176940917969	1569.641235351562	-614.64453125	256.2235107421875	1560.791381835938	-733.712158203125	229.2026672363281	1565.056274414062	-613.992431640625	111.919075012207	1563.731689453125	-775.4600219726562	108.9210433959961	937.8544921875	-890.2646484375	97.13181304931641	930.1446533203125	-530.8507690429688	231.2771606445312	940.6483154296875	-578.554443359375	221.7160186767578	946.3563842773438	-841.3638305664062	345.9947509765625	496.37548828125	-877.9736938476562	277.1352233886719	616.4796142578125	-890.5046997070312	378.9608764648438	38.24334335327148	-896.84375	362.5653076171875	261.2283935546875	-903.63330078125	572.7967529296875	101.1709136962891	-824.4829711914062	499.6090087890625	74.23159790039062	-795.4658813476562	502.3826599121094	59.83601760864258	-901.7753295898438	343.4422912597656	27.64294242858887	-844.3342895507812	98.40068817138672	443.9285583496094	-613.78515625	164.5453338623047	697.9030151367188	-554.284912109375	-33.58831024169922	50.29347610473633	-691.8994750976562	83.41587829589844	319.56298828125	-651.4708862304688	129.9854888916016	34.05606842041016	-789.7633056640625	47.37805938720703	38.48966217041016	-805.0760498046875	48.8430290222168	42.80060577392578	-704.5813598632812	-116.9818649291992	44.94966125488281	-729.292724609375	8.478647232055664	657.2388916015625	-902.44189453125	41.70760726928711	730.1748046875	-925.1588134765625	418.1537475585938	905.7163696289062	-403.0224304199219	nan	nan	nan	
357	3.56	28.58845901489258	949.8189697265625	-651.3334350585938	29.68111228942871	936.4077758789062	-784.2470092773438	24.2795524597168	1027.927856445312	-709.9898071289062	265.6704711914062	1184.772216796875	-695.9127807617188	11.02346706390381	1133.172241210938	-710.0009765625	58.42655181884766	1380.542114257812	-704.077392578125	211.7212982177734	1303.488525390625	-694.2899780273438	7.516919136047363	1234.877563476562	-642.2575073242188	43.67422103881836	1349.735107421875	-804.9390258789062	130.0182800292969	1362.54052734375	-855.244384765625	76.51886749267578	1253.571533203125	-917.031005859375	35.68429565429688	1061.27685546875	-933.2737426757812	0.3047150075435638	1050.63037109375	-857.2022094726562	71.15066528320312	826.982421875	-908.5303955078125	3.401306867599487	832.3636474609375	-955.5113525390625	18.38662910461426	957.0230102539062	-943.9114379882812	-9.311412811279297	745.239013671875	-944.8526000976562	101.6763076782227	1357.73974609375	-546.5010986328125	81.24530029296875	1294.048095703125	-487.7350463867188	110.2723007202148	1038.143676757812	-419.3158874511719	98.62073516845703	1013.525756835938	-511.6661682128906	340.7301330566406	960.6550903320312	-435.92041015625	316.7794494628906	926.5164794921875	-374.5341796875	164.0533447265625	1001.10302734375	-398.8749389648438	470.4713134765625	847.5565185546875	-407.5226135253906	385.5779418945312	871.6884765625	-363.807861328125	104.8254547119141	1567.580078125	-616.288330078125	266.8569030761719	1558.594116210938	-733.5809326171875	238.6544647216797	1563.098999023438	-614.1947021484375	123.0644149780273	1561.384765625	-776.8582763671875	121.6694030761719	935.329833984375	-891.34716796875	104.9236068725586	928.4566650390625	-532.1491088867188	240.0472259521484	938.8548583984375	-578.0376586914062	233.8676147460938	944.1740112304688	-841.0355834960938	358.1659851074219	493.9526062011719	-877.4103393554688	288.4494934082031	613.9379272460938	-891.3613891601562	410.8907165527344	37.34424209594727	-893.5880126953125	384.9500122070312	259.8385009765625	-901.4686889648438	598.62841796875	107.4656677246094	-811.9089965820312	524.6155395507812	77.70048522949219	-786.6107177734375	533.6861572265625	63.64668273925781	-892.5387573242188	373.4875793457031	25.2740306854248	-843.1369018554688	103.4683990478516	442.6407470703125	-614.3916625976562	171.0353851318359	696.1845092773438	-554.2308349609375	-33.668701171875	50.73334121704102	-692.4830932617188	87.2193603515625	318.3042602539062	-652.0576782226562	130.1181640625	33.85658645629883	-789.9298706054688	47.52880859375	38.26872634887695	-805.3907470703125	48.63035202026367	42.83875274658203	-704.9932861328125	-117.0230407714844	45.98757171630859	-730.2454833984375	15.93260955810547	656.1766967773438	-903.3634643554688	49.56134414672852	728.5350341796875	-925.4086303710938	429.3432006835938	908.1152954101562	-403.3883361816406	nan	nan	nan	
